<?xml version="1.0" standalone="no"?>
<!DOCTYPE svg PUBLIC "-//W3C//DTD SVG 20010904//EN"
 "http://www.w3.org/TR/2001/REC-SVG-20010904/DTD/svg10.dtd">
<svg version="1.0" xmlns="http://www.w3.org/2000/svg"
 width="1131.000000pt" height="1131.000000pt" viewBox="0 0 1131.000000 1131.000000"
 preserveAspectRatio="xMidYMid meet">
<metadata>
Created by potrace 1.11, written by Peter Selinger 2001-2013
</metadata>
<g transform="translate(0.000000,1131.000000) scale(0.100000,-0.100000)"
fill="#000000" stroke="none">
<path d="M7050 11279 c-218 -19 -467 -70 -660 -135 -144 -49 -405 -180 -520
-262 -622 -443 -976 -1329 -946 -2367 4 -126 9 -246 12 -266 l6 -36 -98 -7
c-572 -42 -1130 -288 -1496 -658 -360 -364 -564 -839 -629 -1463 -16 -155 -16
-552 0 -680 47 -378 143 -671 308 -938 314 -507 877 -862 1618 -1022 283 -60
600 -94 886 -95 l125 0 43 -60 c74 -106 191 -242 301 -350 334 -330 716 -553
1134 -663 l127 -33 2 -1114 2 -1115 332 -3 333 -2 2 2319 3 2320 55 -52 c185
-177 2228 -2153 2335 -2258 l130 -129 207 208 206 207 -1484 1490 -1484 1490
0 840 0 840 168 -166 c92 -91 183 -181 204 -200 20 -19 512 -500 1093 -1069
581 -569 1061 -1035 1065 -1035 5 0 108 87 229 194 l221 193 -59 64 c-33 35
-694 710 -1470 1500 l-1411 1437 0 796 0 796 233 -231 c127 -126 692 -688
1255 -1248 562 -559 1027 -1016 1032 -1014 5 2 99 99 209 217 l200 214 -392
387 c-216 213 -1026 1013 -1802 1778 l-1410 1392 -60 -1 c-33 -1 -103 -5 -155
-10z m210 -4479 l0 -3810 -40 0 c-66 0 -185 28 -271 65 -182 77 -423 277 -606
505 -97 120 -253 351 -333 493 -30 53 -60 97 -68 97 -8 0 -48 -9 -90 -19 -394
-99 -862 -117 -1217 -46 -826 165 -1255 790 -1232 1795 3 133 11 248 20 300
131 700 649 1142 1537 1309 227 42 374 55 672 55 157 1 285 3 283 6 -1 3 -28
50 -60 105 -181 314 -310 691 -356 1035 -20 149 -15 403 10 544 90 508 422
956 876 1181 247 123 518 190 783 194 l92 1 0 -3810z"/>
<path d="M1137 2047 c-50 -16 -103 -60 -126 -105 -40 -80 -46 -136 -46 -417 0
-227 3 -280 18 -335 37 -137 103 -189 247 -198 120 -7 180 9 235 62 74 71 80
105 80 481 0 310 -1 322 -23 377 -27 66 -83 122 -139 137 -50 14 -198 13 -246
-2z m202 -113 c57 -47 65 -102 65 -409 0 -298 -8 -357 -60 -405 -21 -21 -36
-25 -84 -25 -70 1 -100 22 -127 94 -16 40 -18 82 -18 331 0 323 6 361 62 410
46 41 117 42 162 4z"/>
<path d="M2375 2048 c-82 -29 -123 -90 -132 -197 -7 -84 14 -162 60 -223 19
-25 76 -72 137 -113 135 -90 155 -122 155 -245 0 -49 -6 -99 -13 -117 -24 -55
-110 -80 -171 -48 -35 18 -58 72 -67 160 -5 46 -11 65 -19 61 -7 -2 -33 -8
-59 -11 -25 -4 -46 -11 -46 -15 0 -5 5 -43 11 -86 22 -161 74 -215 213 -222
112 -6 181 14 229 67 49 54 62 99 62 216 -1 162 -42 229 -198 324 -139 84
-161 116 -162 229 0 71 1 75 33 103 26 23 42 29 78 29 51 0 100 -21 108 -47 3
-10 8 -35 12 -56 l6 -37 52 6 c28 4 53 8 55 10 2 2 -2 30 -7 64 -21 118 -79
160 -222 159 -47 0 -98 -5 -115 -11z"/>
<path d="M450 1530 l0 -520 70 0 70 0 2 238 3 237 118 3 c106 2 117 4 117 21
0 10 3 33 6 50 l7 31 -127 0 -126 0 0 175 0 175 156 0 155 0 -3 53 -3 52 -222
3 -223 2 0 -520z"/>
<path d="M1660 1532 l0 -522 70 0 70 0 2 233 3 232 49 3 c27 2 53 -1 57 -5 5
-5 29 -100 54 -213 25 -113 47 -215 50 -227 5 -21 11 -23 80 -23 54 0 75 4 75
13 0 6 -29 114 -64 240 l-63 227 33 16 c24 12 41 32 61 72 26 53 28 65 28 192
0 111 -4 142 -19 173 -39 79 -93 97 -313 104 l-173 6 0 -521z m314 408 c14 -5
32 -20 40 -32 21 -32 30 -122 21 -204 -6 -55 -12 -73 -35 -96 -27 -26 -33 -28
-114 -28 l-86 0 0 185 0 185 74 0 c41 0 86 -4 100 -10z"/>
<path d="M2760 1995 l0 -55 90 0 90 0 0 -465 0 -465 70 0 70 0 0 465 0 465 95
0 95 0 0 55 0 55 -255 0 -255 0 0 -55z"/>
<path d="M3340 1531 l0 -522 203 3 c199 3 203 3 249 30 62 37 85 86 94 203 12
164 -21 250 -114 297 l-53 27 35 16 c72 34 95 88 96 223 0 101 -12 143 -51
179 -46 42 -103 54 -286 60 l-173 6 0 -522z m329 391 c38 -28 54 -84 48 -170
-7 -119 -43 -152 -169 -152 l-78 0 0 168 c0 93 3 172 8 176 14 16 164 -1 191
-22z m19 -431 c48 -26 62 -67 62 -184 0 -169 -26 -198 -187 -205 l-93 -4 0
199 c0 110 3 203 8 207 11 12 184 1 210 -13z"/>
<path d="M3980 1530 l0 -520 210 0 210 0 0 50 0 50 -140 0 -140 0 0 195 0 195
109 0 108 0 7 38 c11 71 17 67 -106 67 l-113 0 -3 168 -2 167 140 0 141 0 -3
53 -3 52 -207 3 -208 2 0 -520z"/>
<path d="M4450 1995 l0 -55 90 0 90 0 0 -465 0 -465 70 0 70 0 0 465 0 465 95
0 95 0 0 54 0 55 -255 1 -255 1 0 -56z"/>
<path d="M5030 1532 l0 -522 70 0 70 0 0 235 0 236 56 -3 57 -3 51 -230 51
-230 78 -3 c42 -2 77 -2 77 0 0 2 -29 108 -65 237 -35 129 -62 238 -59 243 3
4 11 8 18 8 16 0 49 36 72 80 16 30 19 58 19 185 0 185 -9 211 -90 250 -48 24
-66 26 -229 32 l-176 6 0 -521z m309 407 c48 -17 61 -52 61 -169 0 -109 -14
-161 -48 -179 -12 -6 -57 -11 -101 -11 l-81 0 0 185 0 185 69 0 c37 0 82 -5
100 -11z"/>
<path d="M5620 1530 l0 -520 70 0 70 0 0 520 0 520 -70 0 -70 0 0 -520z"/>
<path d="M5880 1530 l0 -520 210 0 210 0 0 50 0 50 -140 0 -140 0 0 195 0 195
109 0 108 0 7 38 c3 20 6 42 6 49 0 9 -32 13 -112 15 l-113 3 -3 168 -2 167
135 0 135 0 0 55 0 55 -205 0 -205 0 0 -520z"/>
<path d="M6400 1531 l0 -522 203 3 c199 3 203 3 248 30 72 43 91 92 92 243 2
167 -21 217 -118 260 l-50 23 36 15 c68 28 99 98 99 221 0 198 -51 233 -342
243 l-168 6 0 -522z m330 391 c37 -28 53 -84 47 -170 -7 -119 -43 -152 -169
-152 l-78 0 0 176 0 177 87 -6 c62 -5 95 -12 113 -25z m25 -436 c42 -27 55
-73 55 -186 0 -162 -27 -191 -187 -198 l-93 -4 0 207 0 208 99 -5 c71 -4 107
-10 126 -22z"/>
<path d="M3507 801 c-83 -17 -127 -78 -127 -176 1 -103 40 -163 157 -237 92
-58 123 -125 103 -228 -10 -52 -39 -80 -84 -80 -60 0 -96 50 -96 137 0 39 -5
42 -56 31 l-42 -9 5 -42 c18 -154 76 -207 215 -194 115 10 168 74 168 202 0
133 -30 183 -154 258 -83 51 -107 80 -113 141 -7 60 11 102 48 115 63 22 119
-12 119 -71 0 -30 6 -32 60 -22 31 7 32 8 26 47 -9 55 -32 94 -65 111 -36 19
-115 27 -164 17z"/>
<path d="M4571 799 c-60 -12 -89 -33 -112 -82 -37 -82 -16 -196 46 -257 18
-18 62 -51 96 -74 84 -55 104 -90 104 -184 0 -68 -2 -76 -28 -98 -32 -28 -82
-32 -114 -9 -21 15 -43 82 -43 135 0 28 -2 30 -27 24 -69 -15 -66 -11 -60 -75
10 -115 56 -167 153 -176 153 -14 226 53 227 206 1 126 -41 189 -178 270 -71
41 -101 97 -91 166 9 54 36 80 86 80 47 0 80 -27 80 -66 0 -35 8 -40 55 -32
l37 6 -6 45 c-7 55 -27 87 -64 105 -37 20 -109 27 -161 16z"/>
<path d="M5032 801 c-57 -10 -92 -37 -122 -97 -25 -48 -25 -52 -25 -304 0
-247 1 -257 23 -302 29 -58 74 -88 146 -95 83 -9 142 4 181 39 38 33 50 66 60
170 l7 68 -55 0 -54 0 -5 -77 c-5 -68 -8 -79 -32 -100 -35 -30 -86 -30 -121 0
-38 33 -47 108 -43 336 5 223 13 256 64 277 18 8 39 12 46 10 7 -3 25 -7 40
-10 33 -7 48 -47 48 -127 0 -32 3 -60 8 -62 4 -2 29 -2 56 1 l49 4 -6 80 c-8
93 -30 146 -72 169 -35 20 -132 30 -193 20z"/>
<path d="M430 400 l0 -390 40 0 40 0 1 278 c0 152 3 270 7 262 3 -8 33 -132
66 -275 l61 -260 53 -3 c28 -2 52 0 52 3 0 16 112 513 120 530 5 12 9 -87 9
-257 l1 -278 40 0 40 0 0 390 0 390 -59 0 -58 0 -21 -87 c-11 -49 -42 -184
-68 -300 -27 -117 -51 -213 -54 -213 -3 0 -34 129 -69 288 -36 158 -67 293
-69 300 -3 8 -26 12 -68 12 l-64 0 0 -390z"/>
<path d="M1097 413 c-42 -208 -77 -384 -77 -391 0 -9 14 -12 47 -10 53 3 47
-8 73 131 l12 58 76 -3 76 -3 16 -90 15 -90 58 -3 c34 -2 57 1 57 7 0 9 -141
690 -155 749 -5 20 -12 22 -63 22 l-57 0 -78 -377z m163 41 c16 -82 30 -155
30 -161 0 -9 -20 -13 -65 -13 -36 0 -65 3 -65 8 0 19 63 322 67 319 2 -3 17
-71 33 -153z"/>
<path d="M1390 750 l0 -40 70 0 70 0 0 -350 0 -350 50 0 50 0 0 350 0 350 70
0 70 0 0 40 0 40 -190 0 -190 0 0 -40z"/>
<path d="M1820 750 l0 -40 70 0 70 0 0 -350 0 -350 50 0 50 0 0 350 0 350 70
0 70 0 0 40 0 40 -190 0 -190 0 0 -40z"/>
<path d="M2252 403 l3 -388 53 -3 52 -3 0 185 0 186 95 0 95 0 0 -186 0 -185
53 3 52 3 3 388 2 387 -55 0 -55 0 0 -165 0 -165 -95 0 -95 0 0 165 0 165 -55
0 -55 0 2 -387z"/>
<path d="M2750 783 c0 -5 -1 -179 0 -388 l0 -380 50 -3 50 -3 0 390 0 391 -50
0 c-27 0 -50 -3 -50 -7z"/>
<path d="M3065 778 c-6 -19 -155 -747 -155 -759 0 -5 22 -9 49 -9 l49 0 17 95
17 95 78 0 77 0 12 -77 c19 -119 15 -113 77 -113 50 0 54 2 53 23 0 12 -35
186 -78 387 l-77 365 -57 3 c-40 2 -59 -1 -62 -10z m88 -324 c15 -78 27 -149
27 -158 0 -13 -12 -16 -66 -16 -58 0 -66 2 -62 18 3 9 18 83 34 164 16 81 32
144 35 140 3 -4 18 -71 32 -148z"/>
<path d="M4020 750 l0 -40 65 0 65 0 2 -347 3 -348 53 -3 52 -3 0 350 0 351
70 0 70 0 0 40 0 40 -190 0 -190 0 0 -40z"/>
<path d="M5372 403 l3 -388 53 -3 52 -3 0 185 0 186 95 0 95 0 0 -186 0 -185
53 3 52 3 3 388 2 387 -55 0 -55 0 0 -165 0 -165 -95 0 -95 0 0 165 0 165 -55
0 -55 0 2 -387z"/>
<path d="M5971 688 c-112 -533 -138 -664 -134 -670 2 -5 24 -8 48 -8 50 0 46
-6 68 115 l12 70 76 3 c87 3 77 15 100 -115 l12 -73 59 0 c32 0 58 2 58 4 0 2
-36 175 -80 384 -44 208 -80 382 -80 385 0 4 -26 7 -59 7 l-58 0 -22 -102z
m104 -223 c14 -77 29 -150 32 -162 5 -22 3 -23 -61 -23 -57 0 -66 2 -66 18 0
11 14 83 30 160 17 78 30 145 30 149 0 27 12 -22 35 -142z"/>
<path d="M6325 781 c-3 -5 -4 -180 -3 -388 l3 -378 146 1 c125 0 151 3 184 20
59 31 79 78 80 189 0 113 -20 160 -83 190 l-42 21 30 11 c48 18 73 86 68 184
-3 70 -6 81 -32 108 -17 17 -46 36 -65 41 -46 13 -278 13 -286 1z m254 -90
c41 -41 38 -165 -5 -208 -19 -19 -33 -23 -84 -23 l-60 0 0 125 0 125 65 0 c50
0 69 -4 84 -19z m-4 -315 c46 -20 55 -42 55 -140 0 -75 -3 -88 -24 -113 -21
-25 -31 -28 -100 -31 l-76 -4 0 151 0 151 55 0 c31 0 71 -6 90 -14z"/>
<path d="M6802 403 l3 -388 53 -3 52 -3 0 390 0 391 -55 0 -55 0 2 -387z"/>
</g>
</svg>
